<?xml version="1.0" encoding="iso-8859-1"?>
<!-- Generator: Adobe Illustrator 16.0.0, SVG Export Plug-In . SVG Version: 6.00 Build 0)  -->
<!DOCTYPE svg PUBLIC "-//W3C//DTD SVG 1.1//EN" "http://www.w3.org/Graphics/SVG/1.1/DTD/svg11.dtd">
<svg version="1.1" id="Capa_1" xmlns="http://www.w3.org/2000/svg" xmlns:xlink="http://www.w3.org/1999/xlink" x="0px" y="0px"
	 width="554.625px" height="554.625px" viewBox="0 0 554.625 554.625" style="enable-background:new 0 0 554.625 554.625;"
	 xml:space="preserve">
<g>
	<g>
		<path d="M334.688,133.875h95.625L315.562,0v114.75C315.562,126.225,325.125,133.875,334.688,133.875z"/>
		<path d="M315.562,372.938c0-47.812,38.25-86.062,86.062-86.062c9.562,0,19.125,1.912,28.688,5.737V153h-95.625
			c-21.037,0-38.25-17.212-38.25-38.25V0h-191.25c-21.038,0-38.25,17.212-38.25,38.25v439.875c0,21.037,17.212,38.25,38.25,38.25
			h191.25v-76.5c0-13.388,7.65-26.775,19.125-32.513V372.938z"/>
		<path d="M468.562,420.75H459h-9.562h-95.625v-47.812c0-26.775,21.037-47.812,47.812-47.812s47.812,21.037,47.812,47.812v9.562H459
			h9.562v-9.562c0-36.338-30.6-66.938-66.938-66.938s-66.938,30.6-66.938,66.938v47.812c-11.475,0-19.125,7.65-19.125,19.125V535.5
			c0,11.475,7.65,19.125,19.125,19.125h133.875c11.475,0,19.125-7.65,19.125-19.125v-95.625
			C487.688,428.4,480.037,420.75,468.562,420.75z"/>
	</g>
</g>
<g>
</g>
<g>
</g>
<g>
</g>
<g>
</g>
<g>
</g>
<g>
</g>
<g>
</g>
<g>
</g>
<g>
</g>
<g>
</g>
<g>
</g>
<g>
</g>
<g>
</g>
<g>
</g>
<g>
</g>
</svg>
